<svg width="40" height="48" viewBox="0 0 40 48" fill="none" xmlns="http://www.w3.org/2000/svg">
<path d="M3.06218 15.98C1.40856 15.98 0.0680237 17.3206 0.0680237 18.9742V32.9469C0.0680237 34.6005 1.40856 35.941 3.06218 35.941C4.71579 35.941 6.05633 34.6005 6.05633 32.9469V18.9742C6.05633 17.3206 4.71579 15.98 3.06218 15.98Z" fill="#FF0043"/>
<path d="M36.9958 15.98C35.3422 15.98 34.0017 17.3206 34.0017 18.9742V32.9469C34.0017 34.6005 35.3422 35.941 36.9958 35.941C38.6494 35.941 39.99 34.6005 39.99 32.9469V18.9742C39.99 17.3206 38.6495 15.98 36.9958 15.98Z" fill="#FF0043"/>
<path d="M31.0075 15.98H9.05048C8.49928 15.98 8.0524 16.4269 8.0524 16.9781V32.9469C8.05193 35.3186 9.7208 37.363 12.0446 37.8374V44.9235C12.0446 46.5771 13.3852 47.9176 15.0388 47.9176C16.6924 47.9176 18.0329 46.5771 18.0329 44.9235V37.9371H22.0252V44.9235C22.0252 46.5771 23.3657 47.9176 25.0193 47.9176C26.6729 47.9176 28.0135 46.5771 28.0135 44.9235V37.8374C30.3373 37.363 32.0062 35.3186 32.0057 32.9469V16.9781C32.0056 16.4269 31.5587 15.98 31.0075 15.98Z" fill="#FF0043"/>
<path d="M27.2849 4.14718L29.7181 1.71593C30.1145 1.33296 30.1255 0.701192 29.7426 0.304654C29.3596 -0.0917903 28.7278 -0.102738 28.3313 0.28014C28.323 0.288186 28.3148 0.296327 28.3068 0.304654L25.4724 3.13918C22.0008 1.63116 18.0591 1.63116 14.5876 3.13918L11.7532 0.302689C11.3567 -0.0802815 10.7249 -0.0692405 10.3419 0.327204C9.96836 0.714011 9.96836 1.32716 10.3419 1.71387L12.7731 4.14709C9.80921 6.10826 8.03405 9.43186 8.05239 12.9858C8.05239 13.537 8.49926 13.9839 9.05047 13.9839H31.0076C31.5588 13.9839 32.0057 13.537 32.0057 12.9858C32.0239 9.43195 30.2488 6.10835 27.2849 4.14718Z" fill="#FF0043"/>
<circle cx="15.0388" cy="8.99369" r="0.998082" fill="#FAFAFA"/>
<circle cx="25.0192" cy="8.99369" r="0.998082" fill="#FAFAFA"/>
</svg>
