<svg width="102" height="43" viewBox="0 0 102 43" fill="none" xmlns="http://www.w3.org/2000/svg">
<path d="M43 6.72583V36.2883C43 37.0408 42.4088 37.6321 41.6562 37.6321H24.3756C23.865 32.8483 24.3219 25.404 25.5312 22.8508C25.5312 22.8508 19.995 22.8508 17.4688 22.8508C17.4688 17.234 20.0756 10.0852 22.7094 5.38208H41.6562C42.4088 5.38208 43 5.97333 43 6.72583Z" fill="#FFE7ED"/>
<path d="M24.3756 37.6321H1.34375C0.59125 37.6321 0 37.0408 0 36.2883V6.72583C0 5.97333 0.59125 5.38208 1.34375 5.38208H22.7094C20.0756 10.0852 17.4688 17.234 17.4688 22.8508C19.995 22.8508 25.5312 22.8508 25.5312 22.8508C24.3219 25.404 23.865 32.8483 24.3756 37.6321Z" fill="#FFE7ED"/>
<path d="M25.4963 42.9936C25.1657 42.9936 24.8379 42.87 24.5799 42.612C22.3331 40.3653 22.4299 29.489 23.693 24.1946H17.4688C16.727 24.1946 16.125 23.5926 16.125 22.8508C16.125 14.7319 21.1748 3.80721 24.5799 0.399456C25.1039 -0.124607 25.9559 -0.124607 26.4799 0.399456C27.004 0.923518 27.004 1.77546 26.4799 2.29952C23.9429 4.83921 19.3822 14.1138 18.8609 21.5071H25.5312C25.9908 21.5071 26.4181 21.7409 26.6654 22.1279C26.9126 22.5176 26.9449 23.004 26.7487 23.4179C25.1013 26.9412 25.1658 39.2526 26.4826 40.7146C26.9718 41.2548 26.961 42.1121 26.4316 42.612C26.1682 42.8646 25.8296 42.9936 25.4963 42.9936Z" fill="#FF0043"/>
<path d="M21.5 32.2571C18.9415 32.2571 14.2948 31.5288 8.92787 29.4809C8.23449 29.2175 7.88781 28.4408 8.15118 27.7475C8.41456 27.0514 9.19124 26.6993 9.88731 26.9708C14.9183 28.8896 19.2882 29.5696 21.5 29.5696C23.7118 29.5696 28.0817 28.8896 33.1154 26.9708C33.8034 26.702 34.5854 27.0487 34.8488 27.7475C35.1149 28.4408 34.7682 29.2175 34.0721 29.4809C28.7052 31.5288 24.0585 32.2571 21.5 32.2571Z" fill="#FF0043"/>
<path d="M12.0938 16.1321C11.352 16.1321 10.75 15.5301 10.75 14.7883V12.1008C10.75 11.3591 11.352 10.7571 12.0938 10.7571C12.8355 10.7571 13.4375 11.3591 13.4375 12.1008V14.7883C13.4375 15.5301 12.8355 16.1321 12.0938 16.1321Z" fill="#FF0043"/>
<path d="M28.2188 16.1321C27.477 16.1321 26.875 15.5301 26.875 14.7883V12.1008C26.875 11.3591 27.477 10.7571 28.2188 10.7571C28.9605 10.7571 29.5625 11.3591 29.5625 12.1008V14.7883C29.5625 15.5301 28.9605 16.1321 28.2188 16.1321Z" fill="#FF0043"/>
<path d="M78.5534 19.4284V4.62616L60.9167 6.83075V19.4284H78.5534Z" fill="#FF0043"/>
<path d="M81.0729 19.4284H101.229V1.79169L81.0729 4.31122V19.4284Z" fill="#FF0043"/>
<path d="M81.0729 21.9479V37.0651L101.229 39.5847V21.9479H81.0729Z" fill="#FF0043"/>
<path d="M78.5534 21.9479H60.9167V34.5456L78.5534 36.7502V21.9479Z" fill="#FF0043"/>
</svg>
